<?xml version="1.0" encoding="UTF-8"?>
<!DOCTYPE svg PUBLIC "-//W3C//DTD SVG 1.1//EN" "http://www.w3.org/Graphics/SVG/1.1/DTD/svg11.dtd">
<svg xmlns="http://www.w3.org/2000/svg" version="1.1" width="512px" height="512px" style="shape-rendering:geometricPrecision; text-rendering:geometricPrecision; image-rendering:optimizeQuality; fill-rule:evenodd; clip-rule:evenodd" xmlns:xlink="http://www.w3.org/1999/xlink">
<g><path style="opacity:0.941" fill="#000000" d="M 352.5,64.5 C 368.879,61.5691 378.213,68.2358 380.5,84.5C 379.263,93.5698 374.263,99.4032 365.5,102C 334.803,104.504 304.137,106.337 273.5,107.5C 274.172,125.056 274.506,142.556 274.5,160C 273.483,186.704 272.317,213.204 271,239.5C 264.78,253.023 254.947,256.523 241.5,250C 237.619,247.072 235.119,243.239 234,238.5C 233.878,211.811 234.712,185.145 236.5,158.5C 236.58,141.856 236.247,125.189 235.5,108.5C 200.815,109.139 166.148,109.973 131.5,111C 123.507,107.692 119.173,101.692 118.5,93C 119.173,84.308 123.507,78.308 131.5,75C 156.796,71.9602 182.129,70.7936 207.5,71.5C 238.543,71.1182 269.543,69.7849 300.5,67.5C 303.421,67.5235 306.254,67.8568 309,68.5C 323.589,67.0598 338.089,65.7265 352.5,64.5 Z"/></g>
<g><path style="opacity:0.939" fill="#00497f" d="M 168.5,170.5 C 176.104,171.72 182.271,175.386 187,181.5C 197.72,202.211 210.053,221.878 224,240.5C 231.772,256.593 240.772,271.926 251,286.5C 261.527,266.254 273.527,246.921 287,228.5C 292.173,217.996 298.173,207.996 305,198.5C 315.314,187.924 325.647,187.924 336,198.5C 340.225,205.307 340.559,212.307 337,219.5C 331.032,229.48 325.032,239.48 319,249.5C 312.842,257.149 307.175,265.149 302,273.5C 294.108,286.941 286.442,300.608 279,314.5C 274.882,320.618 270.049,326.118 264.5,331C 255.763,335.497 247.096,335.497 238.5,331C 234.667,327.167 230.833,323.333 227,319.5C 219.09,306.583 210.757,293.917 202,281.5C 198.139,275.112 194.806,268.446 192,261.5C 177.001,240.177 163.001,218.177 150,195.5C 148.037,180.981 154.204,172.648 168.5,170.5 Z"/></g>
<g><path style="opacity:0.939" fill="#000000" d="M 249.5,340.5 C 259.194,340.691 265.694,345.357 269,354.5C 270.366,364.857 270.533,375.191 269.5,385.5C 270,385.833 270.5,386.167 271,386.5C 282.055,386.859 293.055,386.192 304,384.5C 315.026,386.061 326.026,388.061 337,390.5C 342.616,390.74 348.283,390.406 354,389.5C 358.82,390.12 363.653,390.62 368.5,391C 380.835,395.84 385.001,404.673 381,417.5C 376.257,425.373 369.257,429.039 360,428.5C 350.617,428.24 341.284,428.24 332,428.5C 324.387,426.577 316.721,424.911 309,423.5C 297.702,423.923 286.369,423.923 275,423.5C 268.184,424.228 261.351,424.895 254.5,425.5C 223.366,425.683 192.199,425.35 161,424.5C 153.902,426.024 146.735,426.524 139.5,426C 126.733,420.04 123.233,410.54 129,397.5C 135.55,390.314 143.717,386.814 153.5,387C 179.242,386.757 204.908,386.59 230.5,386.5C 232.074,375.19 232.907,363.856 233,352.5C 236.549,345.657 242.049,341.657 249.5,340.5 Z"/></g>
</svg>
